<svg width="24" height="25" viewBox="0 0 24 25" fill="none" xmlns="http://www.w3.org/2000/svg">
<g clip-path="url(#clip0_474_150)">
<path d="M23.529 9.33728C23.212 8.93968 22.7366 8.71159 22.2244 8.71159H17.6024L15.096 2.97254C14.9406 2.61671 14.5261 2.4541 14.1703 2.60959C13.8144 2.76498 13.6519 3.17949 13.8073 3.53537L16.0679 8.71164H7.70265L9.96319 3.53537C10.1186 3.17949 9.95612 2.76503 9.60024 2.60959C9.24441 2.4541 8.8299 2.61662 8.67451 2.97254L6.16815 8.71164H1.54609C1.03393 8.71164 0.558476 8.93968 0.241554 9.33732C-0.0695557 9.7277 -0.184353 10.2295 -0.0733994 10.7143L2.3949 21.4956C2.56726 22.2484 3.23321 22.7741 4.01438 22.7741H19.7561C20.5373 22.7741 21.2033 22.2484 21.3756 21.4956L23.8439 10.7143C23.9549 10.2295 23.8401 9.72765 23.529 9.33728ZM19.7561 21.3678H4.01438C3.89499 21.3678 3.79041 21.2896 3.76571 21.1817L1.29741 10.4005C1.27805 10.3159 1.31054 10.2522 1.34129 10.2137C1.36979 10.1779 1.43434 10.1179 1.54609 10.1179H5.55404L5.36987 10.5396C5.21448 10.8955 5.37694 11.31 5.73282 11.4654C5.82141 11.5043 5.91709 11.5243 6.01383 11.5244C6.28487 11.5244 6.54315 11.3667 6.65855 11.1025L7.08854 10.118H16.6821L17.1121 11.1025C17.2275 11.3668 17.4857 11.5244 17.7568 11.5244C17.8507 11.5244 17.9462 11.5054 18.0378 11.4654C18.3937 11.31 18.5562 10.8955 18.4007 10.5396L18.2166 10.1179H22.2245C22.3363 10.1179 22.4008 10.1779 22.4293 10.2137C22.46 10.2523 22.4926 10.3159 22.4732 10.4004L20.0049 21.1817C19.9801 21.2896 19.8755 21.3678 19.7561 21.3678Z" fill="white"/>
<path d="M7.6665 13.1647C7.27819 13.1647 6.96338 13.4795 6.96338 13.8678V19.0241C6.96338 19.4124 7.27819 19.7272 7.6665 19.7272C8.05482 19.7272 8.36963 19.4124 8.36963 19.0241V13.8678C8.36963 13.4795 8.05486 13.1647 7.6665 13.1647ZM11.8853 13.1647C11.4969 13.1647 11.1821 13.4795 11.1821 13.8678V19.0241C11.1821 19.4124 11.4969 19.7272 11.8853 19.7272C12.2736 19.7272 12.5884 19.4124 12.5884 19.0241V13.8678C12.5884 13.4795 12.2736 13.1647 11.8853 13.1647ZM16.104 13.1647C15.7157 13.1647 15.4009 13.4795 15.4009 13.8678V19.0241C15.4009 19.4124 15.7157 19.7272 16.104 19.7272C16.4923 19.7272 16.8071 19.4124 16.8071 19.0241V13.8678C16.8071 13.4795 16.4923 13.1647 16.104 13.1647Z" fill="white"/>
</g>
<defs>
<clipPath id="clip0_474_150">
<rect width="24" height="24" fill="white" transform="translate(-0.00927734 0.662361)"/>
</clipPath>
</defs>
</svg>
