<svg width="24" height="25" viewBox="0 0 24 25" fill="none" xmlns="http://www.w3.org/2000/svg">
<g clip-path="url(#clip0_474_124)">
<path d="M22.9867 16.5939C23.5928 16.3592 24 15.7619 24 15.1076V12.0801C24 11.1828 23.27 10.4527 22.3726 10.4527H22.2064C22.6991 9.81498 22.6536 8.89281 22.069 8.30816L19.9282 6.1674C19.4656 5.70477 18.7553 5.57032 18.1608 5.83291C17.8415 5.97399 17.461 5.90279 17.2141 5.65587C16.9672 5.40891 16.896 5.02844 17.0369 4.70914C17.2996 4.11465 17.1652 3.40434 16.7024 2.94166L14.5617 0.800909C13.9273 0.166509 12.8948 0.166414 12.2603 0.800909L2.60852 10.4527H1.62739C0.730024 10.4527 0 11.1828 0 12.0801V15.1076C0 15.7619 0.4072 16.3593 1.01327 16.5939C1.33878 16.7199 1.55751 17.0393 1.55751 17.3885C1.55751 17.7377 1.33878 18.0571 1.01327 18.1831C0.4072 18.4179 0 19.0152 0 19.6695V22.6969C0 23.5942 0.730024 24.3243 1.62739 24.3243H22.3726C23.27 24.3243 24 23.5942 24 22.6969V19.6695C24 19.0152 23.5928 18.4179 22.9868 18.1831C22.6612 18.0571 22.4425 17.7377 22.4425 17.3885C22.4425 17.0393 22.6612 16.7199 22.9867 16.5939ZM13.2585 1.79926C13.299 1.75887 13.3538 1.73619 13.411 1.73618C13.4682 1.73617 13.523 1.75884 13.5635 1.79921L15.7042 3.93997C15.7578 3.99357 15.7744 4.07343 15.7455 4.13879C15.3708 4.98731 15.5598 5.99818 16.2158 6.65413C16.8718 7.31013 17.8826 7.49907 18.7312 7.12434C18.7965 7.09554 18.8764 7.11211 18.93 7.16571L21.0707 9.30641C21.1111 9.34688 21.1338 9.40171 21.1338 9.45888C21.1338 9.51604 21.1111 9.57088 21.0707 9.61136L20.2293 10.4527H16.5511L10.5781 4.47969L13.2585 1.79926ZM9.57981 5.47794L14.5546 10.4527H4.60499L9.57981 5.47794ZM1.41176 22.6969V19.6695C1.41176 19.5937 1.45652 19.5254 1.52311 19.4996C2.38809 19.1646 2.96922 18.3163 2.96922 17.3885C2.96922 16.4607 2.38805 15.6123 1.52301 15.2773C1.45647 15.2516 1.41176 15.1834 1.41176 15.1076V12.0801C1.41184 12.0229 1.43458 11.9681 1.475 11.9277C1.51542 11.8873 1.57022 11.8646 1.62739 11.8645H17.6471V22.9125H1.62739C1.57022 22.9125 1.51541 22.8897 1.47499 22.8493C1.43456 22.8089 1.41183 22.7541 1.41176 22.6969ZM22.5882 15.1076C22.5882 15.1834 22.5435 15.2516 22.4769 15.2774C21.612 15.6124 21.0307 16.4608 21.0307 17.3885C21.0307 18.3163 21.6119 19.1647 22.4769 19.4996C22.5435 19.5254 22.5882 19.5937 22.5882 19.6695V22.6969C22.5882 22.7541 22.5654 22.8089 22.525 22.8493C22.4846 22.8897 22.4298 22.9125 22.3726 22.9125H19.0588V11.8645H22.3726C22.4298 11.8646 22.4846 11.8873 22.525 11.9277C22.5654 11.9681 22.5882 12.0229 22.5882 12.0801V15.1076Z" fill="#4E4E4E"/>
<path d="M4.94116 13.7361H15.5294V15.1478H4.94116V13.7361ZM4.94116 16.5596H15.5294V17.9714H4.94116V16.5596ZM4.94116 19.3831H15.5294V20.7949H4.94116V19.3831Z" fill="#4E4E4E"/>
</g>
<defs>
<clipPath id="clip0_474_124">
<rect width="24" height="24" fill="white" transform="translate(0 0.324707)"/>
</clipPath>
</defs>
</svg>
