<svg width="24" height="25" viewBox="0 0 24 25" fill="none" xmlns="http://www.w3.org/2000/svg">
<g clip-path="url(#clip0_474_157)">
<path d="M11.9906 11.7075C8.98208 11.7075 6.53445 9.25986 6.53445 6.25133C6.53445 3.2428 8.98208 0.795174 11.9906 0.795174C14.9991 0.795174 17.4468 3.2428 17.4468 6.25133C17.4468 9.25986 14.9991 11.7075 11.9906 11.7075ZM11.9906 1.96705C9.62825 1.96705 7.70633 3.88897 7.70633 6.25133C7.70633 8.61369 9.62825 10.5356 11.9906 10.5356C14.353 10.5356 16.2749 8.61369 16.2749 6.25133C16.2749 3.88897 14.353 1.96705 11.9906 1.96705ZM18.8904 23.5295H5.0908C3.60233 23.5295 2.39136 22.3186 2.39136 20.8301V19.1413C2.39136 15.6273 5.25022 12.7685 8.76425 12.7685H15.2169C18.731 12.7685 21.5898 15.6273 21.5898 19.1413V20.8301C21.5899 22.3186 20.3789 23.5295 18.8904 23.5295ZM8.76425 13.9403C5.89639 13.9403 3.56323 16.2735 3.56323 19.1413V20.8301C3.56323 21.6724 4.2485 22.3577 5.0908 22.3577H18.8904C19.7327 22.3577 20.418 21.6724 20.418 20.8301V19.1413C20.418 16.2735 18.0848 13.9403 15.217 13.9403H8.76425Z" fill="white"/>
</g>
<defs>
<clipPath id="clip0_474_157">
<rect width="24" height="24" fill="white" transform="translate(-0.00927734 0.162361)"/>
</clipPath>
</defs>
</svg>
